/* XPM */
static char *d7cc0c727d104902955f71437101f5abFal5DQqIQmL7jxWU[] = {
/* columns rows colors chars-per-pixel */
"32 32 13 1 ",
"  c None",
". c black",
"X c #8E5324",
"o c #9E0000",
"O c #DBA073",
"+ c #005FE5",
"@ c #2D2D2D",
"# c #1945BC",
"$ c #D95763",
"% c #F46572",
"& c #BC9035",
"* c #690000",
"= c white",
/* pixels */
"                                ",
"                                ",
"                                ",
"                                ",
"                                ",
"               ...    ...       ",
"      .       .XXX.  .XXX.      ",
"     .o.      .X.X.  .X.X.      ",
"     .o.      ..O.O..O.O..      ",
"     .o.      .OOOOOOOOOO.      ",
"    .oo.     .+OOO+++OO++.      ",
"   .oo.      .+++++@++++@+.     ",
"   .o.       .+++++.++++.+.     ",
"   .#.       ....O+++$%++O.     ",
"   .##.       .OOOOOOOOOOO.     ",
"   .###...........OOOOOOO.      ",
"   .##########...OOOOOOO.       ",
"    .##########.........        ",
"    .###########.......         ",
"     ..############&##.         ",
"      .###############.         ",
"      .###############.         ",
"      .##############.          ",
"      .o##ooooo#oo#oo.          ",
"      .oo#*ooo*oo*ooo.          ",
"      .oo..oo..oo..oo.          ",
"       ... ... ... ..           ",
"                                ",
"                                ",
"                                ",
"                                ",
"                                "
};
