/* XPM */
static char *collect[] = {
/* columns rows colors chars-per-pixel */
"96 96 12 1",
"  c black",
". c #2D2D2D",
"X c #690000",
"o c #1945BC",
"O c #005FE5",
"+ c #9E0000",
"@ c #8E5324",
"# c #D95763",
"$ c #F46572",
"% c #BC9035",
"& c #DBA073",
"* c None",
/* pixels */
"************************************************************************************************",
"************************************************************************************************",
"************************************************************************************************",
"************************************************************************************************",
"************************************************************************************************",
"************************************************************************************************",
"************************************************************************************************",
"************************************************************************************************",
"************************************************************************************************",
"************************************************************************************************",
"************************************************************************************************",
"************************************************************************************************",
"************************************************************************************************",
"************************************************************************************************",
"************************************************************************************************",
"*********************************************         ************         *********************",
"*********************************************         ************         *********************",
"*********************************************         ************         *********************",
"******************   *********************   @@@@@@@@@   ******   @@@@@@@@@   ******************",
"******************   *********************   @@@@@@@@@   ******   @@@@@@@@@   ******************",
"******************   *********************   @@@@@@@@@   ******   @@@@@@@@@   ******************",
"***************   +++   ******************   @@@   @@@   ******   @@@   @@@   ******************",
"***************   +++   ******************   @@@   @@@   ******   @@@   @@@   ******************",
"***************   +++   ******************   @@@   @@@   ******   @@@   @@@   ******************",
"***************   +++   ******************      &&&   &&&      &&&   &&&      ******************",
"***************   +++   ******************      &&&   &&&      &&&   &&&      ******************",
"***************   +++   ******************      &&&   &&&      &&&   &&&      ******************",
"***************   +++   ******************   &&&&&&&&&&&&&&&&&&&&&&&&&&&&&&   ******************",
"***************   +++   ******************   &&&&&&&&&&&&&&&&&&&&&&&&&&&&&&   ******************",
"***************   +++   ******************   &&&&&&&&&&&&&&&&&&&&&&&&&&&&&&   ******************",
"************   ++++++   ***************   OOO&&&&&&&&&OOOOOOOOO&&&&&&OOOOOO   ******************",
"************   ++++++   ***************   OOO&&&&&&&&&OOOOOOOOO&&&&&&OOOOOO   ******************",
"************   ++++++   ***************   OOO&&&&&&&&&OOOOOOOOO&&&&&&OOOOOO   ******************",
"*********   ++++++   ******************   OOOOOOOOOOOOOOO...OOOOOOOOOOOO...OOO   ***************",
"*********   ++++++   ******************   OOOOOOOOOOOOOOO...OOOOOOOOOOOO...OOO   ***************",
"*********   ++++++   ******************   OOOOOOOOOOOOOOO...OOOOOOOOOOOO...OOO   ***************",
"*********   +++   *********************   OOOOOOOOOOOOOOO   OOOOOOOOOOOO   OOO   ***************",
"*********   +++   *********************   OOOOOOOOOOOOOOO   OOOOOOOOOOOO   OOO   ***************",
"*********   +++   *********************   OOOOOOOOOOOOOOO   OOOOOOOOOOOO   OOO   ***************",
"*********   ooo   *********************            &&&OOOOOOOOO###$$$OOOOOO&&&   ***************",
"*********   ooo   *********************            &&&OOOOOOOOO###$$$OOOOOO&&&   ***************",
"*********   ooo   *********************            &&&OOOOOOOOO###$$$OOOOOO&&&   ***************",
"*********   oooooo   *********************   &&&&&&&&&&&&&&&&&&&&&&&&&&&&&&&&&   ***************",
"*********   oooooo   *********************   &&&&&&&&&&&&&&&&&&&&&&&&&&&&&&&&&   ***************",
"*********   oooooo   *********************   &&&&&&&&&&&&&&&&&&&&&&&&&&&&&&&&&   ***************",
"*********   ooooooooo                                 &&&&&&&&&&&&&&&&&&&&&   ******************",
"*********   ooooooooo                                 &&&&&&&&&&&&&&&&&&&&&   ******************",
"*********   ooooooooo                                 &&&&&&&&&&&&&&&&&&&&&   ******************",
"*********   oooooooooooooooooooooooooooooo         &&&&&&&&&&&&&&&&&&&&&   *********************",
"*********   oooooooooooooooooooooooooooooo         &&&&&&&&&&&&&&&&&&&&&   *********************",
"*********   oooooooooooooooooooooooooooooo         &&&&&&&&&&&&&&&&&&&&&   *********************",
"************   oooooooooooooooooooooooooooooo                           ************************",
"************   oooooooooooooooooooooooooooooo                           ************************",
"************   oooooooooooooooooooooooooooooo                           ************************",
"************   ooooooooooooooooooooooooooooooooo                     ***************************",
"************   ooooooooooooooooooooooooooooooooo                     ***************************",
"************   ooooooooooooooooooooooooooooooooo                     ***************************",
"***************      oooooooooooooooooooooooooooooooooooo%%%oooooo   ***************************",
"***************      oooooooooooooooooooooooooooooooooooo%%%oooooo   ***************************",
"***************      oooooooooooooooooooooooooooooooooooo%%%oooooo   ***************************",
"******************   ooooooooooooooooooooooooooooooooooooooooooooo   ***************************",
"******************   ooooooooooooooooooooooooooooooooooooooooooooo   ***************************",
"******************   ooooooooooooooooooooooooooooooooooooooooooooo   ***************************",
"******************   ooooooooooooooooooooooooooooooooooooooooooooo   ***************************",
"******************   ooooooooooooooooooooooooooooooooooooooooooooo   ***************************",
"******************   ooooooooooooooooooooooooooooooooooooooooooooo   ***************************",
"******************   oooooooooooooooooooooooooooooooooooooooooo   ******************************",
"******************   oooooooooooooooooooooooooooooooooooooooooo   ******************************",
"******************   oooooooooooooooooooooooooooooooooooooooooo   ******************************",
"******************   +++oooooo+++++++++++++++ooo++++++ooo++++++   ******************************",
"******************   +++oooooo+++++++++++++++ooo++++++ooo++++++   ******************************",
"******************   +++oooooo+++++++++++++++ooo++++++ooo++++++   ******************************",
"******************   ++++++oooXXX+++++++++XXX++++++XXX+++++++++   ******************************",
"******************   ++++++oooXXX+++++++++XXX++++++XXX+++++++++   ******************************",
"******************   ++++++oooXXX+++++++++XXX++++++XXX+++++++++   ******************************",
"******************   ++++++      ++++++      ++++++      ++++++   ******************************",
"******************   ++++++      ++++++      ++++++      ++++++   ******************************",
"******************   ++++++      ++++++      ++++++      ++++++   ******************************",
"*********************         ***         ***         ***      *********************************",
"*********************         ***         ***         ***      *********************************",
"*********************         ***         ***         ***      *********************************",
"************************************************************************************************",
"************************************************************************************************",
"************************************************************************************************",
"************************************************************************************************",
"************************************************************************************************",
"************************************************************************************************",
"************************************************************************************************",
"************************************************************************************************",
"************************************************************************************************",
"************************************************************************************************",
"************************************************************************************************",
"************************************************************************************************",
"************************************************************************************************",
"************************************************************************************************",
"************************************************************************************************"
};
