/* XPM */
static char *_3373d69c7544c8cd9bec410f645da68OQIbR0Q9SNSIkmab[] = {
/* columns rows colors chars-per-pixel */
"32 32 61 1 ",
"  c None",
". c black",
"X c #693801",
"o c #6D3B04",
"O c #6C3C06",
"+ c #724108",
"@ c #7B4C10",
"# c #7D4F16",
"$ c #594C36",
"% c #534A39",
"& c #5B5242",
"* c #654B4B",
"= c #62584A",
"- c #7B6740",
"; c #7A6A45",
": c #686050",
"> c #726B5C",
", c #6C6C6C",
"< c #804E08",
"1 c #835111",
"2 c #8A5A10",
"3 c #8E5E13",
"4 c #9A6918",
"5 c #9B6C1F",
"6 c #A16F1D",
"7 c #A47015",
"8 c #89612B",
"9 c #966B25",
"0 c #9B6A22",
"q c #996C24",
"w c #956F38",
"e c #9A743A",
"r c #98733D",
"t c #A07226",
"y c #A47C38",
"u c #84734D",
"i c #9C7948",
"p c #817356",
"a c #AA8137",
"s c #D6A733",
"d c #A9874C",
"f c #B4924F",
"g c #8F8269",
"h c #C8A048",
"j c #D0A649",
"k c #C9B078",
"l c #C2AD84",
"z c #CFBD8F",
"x c #CABA99",
"c c #D6C595",
"v c #D6C699",
"b c #EAD591",
"n c #ECDA9C",
"m c #D4C8A7",
"M c #DCD1AC",
"N c #F4ECBE",
"B c #EFEBC7",
"V c #ECE8CA",
"C c #F6F2CA",
"Z c #F6F4CF",
"A c #FBFAD7",
/* pixels */
"                                ",
"                                ",
"                                ",
"                                ",
"                                ",
"                                ",
"                                ",
"                                ",
"                                ",
"                                ",
"                                ",
"                                ",
"                                ",
"                      j         ",
"                   0  6  t      ",
"                   o  q $#      ",
"                 h irX9-afuk    ",
"                 sbm8O<5yzNA    ",
"                  nVw+27@lZv    ",
"            %%%%%;CBd134eMcp    ",
"          %%%%%%%%%xg%%%%%%%%   ",
"         %%%%%%%%%%%%%%%%,.%%%  ",
"         %%%%%%%%%%%%%%%%..%%%% ",
"       %%%%%%%%%%%%%%%%%%%%%%%%*",
"%%%  %% %%%%%%%%%%%%%%%%%%%%%%% ",
"   %%%   %%:>>>>>>>>>>>&%       ",
"          %&===========&        ",
"               *    *           ",
"              * *  * *          ",
"                                ",
"                                ",
"                                "
};
