/* XPM */
static char *_2cd6bc684a7435ff526dc7d88577b52jIi8zGnHt0igbQgb_3[] = {
/* columns rows colors chars-per-pixel */
"32 32 15 1 ",
"  c None",
". c black",
"X c #534A39",
"o c #5B5242",
"O c #654B4B",
"+ c #62584A",
"@ c #686050",
"# c #726B5C",
"$ c #7C715A",
"% c #6C6C6C",
"& c #80745D",
"* c #877B63",
"= c #8F8269",
"- c #95886E",
"; c #CABA99",
/* pixels */
"                                ",
"                                ",
"                                ",
"                                ",
"                                ",
"                                ",
"                                ",
"                                ",
"                                ",
"                                ",
"                                ",
"                                ",
"                                ",
"                                ",
"                                ",
"                        XX      ",
"                       X;$X     ",
"                   XXX X&*X     ",
"                  X;;;XXXXX     ",
"            XXXXXXX;;-XXXXXX    ",
"          XXXXXXXXX;=XXXXXXXX   ",
"         XXXXXXXXXXXXXXXX%.XXX  ",
"         XXXXXXXXXXXXXXXX..XXXX ",
"      XXXXXXXXXXXXXXXXXXXXXXXXXO",
"    XX  XXXXXXXXXXXXXXXXXXXXXXX ",
"XXXX     XX@###########oX       ",
"          Xo+++++++++++o        ",
"              O    O            ",
"             O O  O O           ",
"                                ",
"                                ",
"                                "
};
