/* XPM */
static char *_cac23c03d974caac8023701cce2ee26qhg1trLFqfYK6Tou[] = {
/* columns rows colors chars-per-pixel */
"32 32 131 2 ",
"   c None",
".  c #0D263D",
"X  c #0F283F",
"o  c #162537",
"O  c #10283E",
"+  c #2C2E38",
"@  c #35343E",
"#  c #0C2943",
"$  c #172F45",
"%  c #153049",
"&  c #1E3952",
"*  c #283241",
"=  c #393D47",
"-  c #393E4A",
";  c #284056",
":  c #394150",
">  c #49474E",
",  c #474952",
"<  c #544F55",
"1  c #44505F",
"2  c #555157",
"3  c #565358",
"4  c #65534C",
"5  c #715F58",
"6  c #78665F",
"7  c #7F685F",
"8  c #425363",
"9  c #645F63",
"0  c #5C616B",
"q  c #6C6567",
"w  c #64676E",
"e  c #6D6568",
"r  c #6F696D",
"t  c #756561",
"y  c #7D6A63",
"u  c #70686A",
"i  c #7F6E68",
"p  c #656A73",
"a  c #716C70",
"s  c #68717C",
"d  c #787275",
"f  c #826D65",
"g  c #877066",
"h  c #83726C",
"j  c #8C756B",
"k  c #8D786F",
"l  c #927A6E",
"z  c #8B7770",
"x  c #897A74",
"c  c #877B7A",
"v  c #887B78",
"b  c #957C70",
"n  c #997F73",
"m  c #998175",
"M  c #94837B",
"N  c #9B877D",
"B  c #A18A7E",
"V  c #717881",
"C  c #8D8282",
"Z  c #968880",
"A  c #998D8B",
"S  c #9E918B",
"D  c #909094",
"F  c #9D9594",
"G  c #9F9A9B",
"H  c #A19693",
"J  c #A99D99",
"K  c #B39F93",
"L  c #B4A095",
"P  c #B6A59E",
"I  c #ACA6A6",
"U  c #ABA6A9",
"Y  c #AFA8AA",
"T  c #B4A6A2",
"R  c #B2A9A5",
"E  c #BCAAA2",
"W  c #B3ACAD",
"Q  c #BCAFAC",
"!  c #BEB0A9",
"~  c #B6B1B3",
"^  c #BDB4B2",
"/  c #B9B4B8",
"(  c #C4B4AC",
")  c #C8B7AF",
"_  c #CBBDB5",
"`  c #CCC0B7",
"'  c #CDC1B8",
"]  c #D2C3BC",
"[  c #C3BFC2",
"{  c #CAC4C4",
"}  c #CECAC8",
"|  c #D1C5C2",
" . c #D2CBCA",
".. c #D8CFC8",
"X. c #DBD3CD",
"o. c #CECED3",
"O. c #D4CED0",
"+. c #D1D1D5",
"@. c #D8D2D2",
"#. c #D4D6DD",
"$. c #D8D6DB",
"%. c #DFDADB",
"&. c #E4D9CF",
"*. c #E0D6D0",
"=. c #E6DCD2",
"-. c #E3DDDA",
";. c #E9DFDB",
":. c #D3D9E3",
">. c #DBDDE4",
",. c #E0DFE4",
"<. c #DEE2EB",
"1. c #E4E3E7",
"2. c #EDE5E0",
"3. c #E6E6EB",
"4. c #E7E9EF",
"5. c #EAEAED",
"6. c #F4F1EF",
"7. c #E7ECF5",
"8. c #EBEEF4",
"9. c #E9EFF9",
"0. c #EFF1F6",
"q. c #EEF5FD",
"w. c #F1F0F3",
"e. c #F1F6FE",
"r. c #F5FAFF",
"t. c #F6FAFF",
"y. c #F7FBFF",
"u. c #F5F9FE",
"i. c #F7FCFF",
"p. c #F3F9FF",
"a. c #FAFCFD",
/* pixels */
"                                                                ",
"                                                                ",
"                                                                ",
"                                                                ",
"                                                                ",
"                                                                ",
"                                                                ",
"                                                                ",
"                                                                ",
"                      = - : : : : = = = = =                     ",
"                + @ G  .+.:.>.:.:.+.} } } { C @                 ",
"            > C W / $.q.r.r.i.r.r.5.+.9.r.e.@.[ Y d 3           ",
"            C @.9.F W e.w.w.3.%.X.Z R e.e.r.a.9.<.1.Q u         ",
"          c  .q.0.S x X.*.( ' P M 5 S J T X.2.R H 3.9.W         ",
"        2 T 4.4...y x E ` ] ( K m b j 7 j N E M X.6.e.{ <       ",
"        e ( 7.o.h 4 M ( L B l l b m n m m m m k ! X.r.,.r       ",
"        e E O.q.U t j f y f 6 y h g z y g l l m H 3.p.5.a       ",
"        9 E ( >.7.<.<.~ I ^ o.<.>.[ #.W A i h v >.9.8.| q       ",
"        * H E Q %.q.q.q.e.q.q.q.q.q.q.e.9.<.<.>.@.X.=.) e       ",
"        . w P E _ ;.2.2.2.5.8.0.8.5.5.8.0.5.8.-.&.=._ P ,       ",
"          $ 1 p p D _ ] ] ] ] ] ] ] ] ] ] ) ^ I V s p 0 o       ",
"          . . . # % 8 p w w w w p p p w w 0 ; & # # . .         ",
"              O O . . . . . . . . . . . . . X X O O O           ",
"                      O O O O O O O O O O                       ",
"                                                                ",
"                                                                ",
"                                                                ",
"                                                                ",
"                                                                ",
"                                                                ",
"                                                                ",
"                                                                "
};
